<svg width="24" height="24" viewBox="0 0 24 24" fill="none" xmlns="http://www.w3.org/2000/svg">
<path d="M20 3H4C3.73478 3 3.48043 3.10536 3.29289 3.29289C3.10536 3.48043 3 3.73478 3 4V20C3 20.2652 3.10536 20.5196 3.29289 20.7071C3.48043 20.8946 3.73478 21 4 21H20C20.2652 21 20.5196 20.8946 20.7071 20.7071C20.8946 20.5196 21 20.2652 21 20V4C21 3.73478 20.8946 3.48043 20.7071 3.29289C20.5196 3.10536 20.2652 3 20 3ZM17.954 7.265L16.988 8.19C16.9472 8.22112 16.9157 8.26286 16.897 8.31065C16.8783 8.35844 16.8731 8.41045 16.882 8.461V15.262C16.8731 15.3125 16.8783 15.3646 16.897 15.4124C16.9157 15.4601 16.9472 15.5019 16.988 15.533L17.93 16.459V16.663H13.189V16.459L14.166 15.511C14.263 15.415 14.263 15.386 14.263 15.24V9.742L11.547 16.638H11.179L8.018 9.742V14.364C8.00552 14.46 8.01486 14.5577 8.04533 14.6496C8.07581 14.7415 8.12662 14.8254 8.194 14.895L9.465 16.436V16.639H5.861V16.436L7.132 14.895C7.1989 14.8254 7.24858 14.7412 7.27706 14.649C7.30553 14.5568 7.31202 14.4592 7.296 14.364V9.02C7.30348 8.94685 7.29361 8.87296 7.2672 8.80434C7.24079 8.73571 7.19859 8.67427 7.144 8.625L6.014 7.265V7.062H9.52L12.23 13.005L14.612 7.062H17.955V7.265H17.954Z" fill="#B4B4B4"/>
</svg>
